<svg width="22" height="26" viewBox="0 0 22 26" fill="none" xmlns="http://www.w3.org/2000/svg">
<path d="M18.128 13.8666C18.099 10.7756 20.767 9.27174 20.889 9.20173C19.378 7.0889 17.036 6.80023 16.213 6.77721C14.246 6.57868 12.338 7.90603 11.336 7.90603C10.314 7.90603 8.77103 6.79639 7.10803 6.829C4.96803 6.86065 2.96603 8.04893 1.86803 9.89417C-0.397973 13.6566 1.29203 19.1856 3.46303 22.2268C4.54903 23.7162 5.81803 25.3792 7.47903 25.3207C9.10403 25.2565 9.71103 24.3271 11.672 24.3271C13.615 24.3271 14.185 25.3207 15.879 25.2833C17.623 25.2565 18.721 23.7872 19.769 22.2843C21.024 20.5772 21.528 18.896 21.548 18.8096C21.507 18.7962 18.161 17.5715 18.128 13.8666Z" fill="white"/>
<path d="M14.928 4.7766C15.802 3.72834 16.4 2.30221 16.234 0.85498C14.969 0.908688 13.387 1.69416 12.476 2.7194C11.67 3.62284 10.95 5.10364 11.136 6.4962C12.557 6.59786 14.016 5.80855 14.928 4.7766Z" fill="white"/>
</svg>
