<svg width="26" height="27" viewBox="0 0 26 27" fill="none" xmlns="http://www.w3.org/2000/svg">
<path d="M0.900141 1.28342C0.599863 1.58489 0.426086 2.05424 0.426086 2.66207V24.3431C0.426086 24.951 0.599863 25.4203 0.900141 25.7218L0.974253 25.788L13.6421 13.6435V13.3568L0.974253 1.21234L0.900141 1.28342Z" fill="white"/>
<path d="M19.3934 17.6941L15.1754 13.6439V13.3571L19.3985 9.30696L19.4931 9.35965L24.4943 12.0888C25.9216 12.8633 25.9216 14.1378 24.4943 14.9172L19.4931 17.6414L19.3934 17.6941Z" fill="white"/>
<path d="M18.7264 18.3952L14.4088 14.2543L1.66684 26.476C2.1409 26.9539 2.91395 27.0115 3.79306 26.5336L18.7264 18.3952Z" fill="white"/>
<path d="M18.7264 8.60571L3.79306 0.467353C2.91395 -0.00567913 2.1409 0.0519168 1.66684 0.529851L14.4088 12.7466L18.7264 8.60571Z" fill="white"/>
</svg>
