<svg width="21" height="21" viewBox="0 0 21 21" fill="none" xmlns="http://www.w3.org/2000/svg">
<path d="M10.0294 7.5C9.2338 7.5 8.47074 7.81607 7.90813 8.37868C7.34552 8.94129 7.02945 9.70435 7.02945 10.5C7.02945 11.2956 7.34552 12.0587 7.90813 12.6213C8.47074 13.1839 9.2338 13.5 10.0294 13.5C10.8251 13.5 11.5882 13.1839 12.1508 12.6213C12.7134 12.0587 13.0294 11.2956 13.0294 10.5C13.0294 9.70435 12.7134 8.94129 12.1508 8.37868C11.5882 7.81607 10.8251 7.5 10.0294 7.5ZM10.0294 5.5C11.3555 5.5 12.6273 6.02678 13.565 6.96447C14.5027 7.90215 15.0294 9.17392 15.0294 10.5C15.0294 11.8261 14.5027 13.0979 13.565 14.0355C12.6273 14.9732 11.3555 15.5 10.0294 15.5C8.70337 15.5 7.4316 14.9732 6.49392 14.0355C5.55623 13.0979 5.02945 11.8261 5.02945 10.5C5.02945 9.17392 5.55623 7.90215 6.49392 6.96447C7.4316 6.02678 8.70337 5.5 10.0294 5.5ZM16.5294 5.25C16.5294 5.58152 16.3978 5.89946 16.1633 6.13388C15.9289 6.3683 15.611 6.5 15.2794 6.5C14.9479 6.5 14.63 6.3683 14.3956 6.13388C14.1611 5.89946 14.0294 5.58152 14.0294 5.25C14.0294 4.91848 14.1611 4.60054 14.3956 4.36612C14.63 4.1317 14.9479 4 15.2794 4C15.611 4 15.9289 4.1317 16.1633 4.36612C16.3978 4.60054 16.5294 4.91848 16.5294 5.25ZM10.0294 2.5C7.55545 2.5 7.15145 2.507 6.00045 2.558C5.21645 2.595 4.69045 2.7 4.20245 2.89C3.76845 3.058 3.45545 3.259 3.12245 3.593C2.80946 3.8954 2.5688 4.26458 2.41845 4.673C2.22845 5.163 2.12345 5.688 2.08745 6.471C2.03545 7.575 2.02945 7.961 2.02945 10.5C2.02945 12.974 2.03645 13.378 2.08745 14.529C2.12445 15.312 2.22945 15.839 2.41845 16.326C2.58845 16.761 2.78845 17.074 3.12045 17.406C3.45745 17.742 3.77045 17.943 4.20045 18.109C4.69445 18.3 5.22045 18.406 6.00045 18.442C7.10445 18.494 7.49045 18.5 10.0294 18.5C12.5034 18.5 12.9074 18.493 14.0584 18.442C14.8404 18.405 15.3674 18.3 15.8554 18.111C16.2885 17.942 16.6034 17.741 16.9354 17.409C17.2724 17.072 17.4734 16.759 17.6395 16.329C17.8295 15.836 17.9354 15.309 17.9714 14.529C18.0234 13.425 18.0294 13.039 18.0294 10.5C18.0294 8.026 18.0224 7.622 17.9714 6.471C17.9344 5.689 17.8295 5.161 17.6395 4.673C17.4887 4.265 17.2485 3.89596 16.9364 3.593C16.6342 3.27985 16.265 3.03917 15.8564 2.889C15.3664 2.699 14.8404 2.594 14.0584 2.558C12.9544 2.506 12.5684 2.5 10.0294 2.5ZM10.0294 0.5C12.7464 0.5 13.0854 0.51 14.1514 0.56C15.2164 0.61 15.9414 0.777 16.5794 1.025C17.2394 1.279 17.7955 1.623 18.3514 2.178C18.8599 2.6779 19.2534 3.28259 19.5044 3.95C19.7514 4.587 19.9195 5.313 19.9695 6.378C20.0165 7.444 20.0294 7.783 20.0294 10.5C20.0294 13.217 20.0194 13.556 19.9695 14.622C19.9195 15.687 19.7514 16.412 19.5044 17.05C19.2541 17.7178 18.8606 18.3226 18.3515 18.822C17.8514 19.3303 17.2468 19.7238 16.5794 19.975C15.9424 20.222 15.2164 20.39 14.1514 20.44C13.0854 20.487 12.7464 20.5 10.0294 20.5C7.31245 20.5 6.97345 20.49 5.90745 20.44C4.84245 20.39 4.11745 20.222 3.47945 19.975C2.81178 19.7245 2.20698 19.3309 1.70745 18.822C1.19886 18.3222 0.805381 17.7175 0.55445 17.05C0.30645 16.413 0.13945 15.687 0.0894495 14.622C0.0424495 13.556 0.0294496 13.217 0.0294495 10.5C0.0294495 7.783 0.0394495 7.444 0.0894494 6.378C0.139449 5.312 0.30645 4.588 0.55445 3.95C0.804686 3.28218 1.19825 2.67732 1.70745 2.178C2.20712 1.66923 2.81188 1.27573 3.47945 1.025C4.11745 0.777 4.84145 0.61 5.90745 0.56C6.97345 0.513 7.31245 0.5 10.0294 0.5Z" fill="#2B2B2B"/>
</svg>
