<svg width="19" height="19" viewBox="0 0 19 19" fill="none" xmlns="http://www.w3.org/2000/svg">
<path d="M9.36036 10.3522C9.66765 10.3522 9.97193 10.2917 10.2558 10.1741C10.5397 10.0565 10.7977 9.88416 11.015 9.66687C11.2323 9.44958 11.4046 9.19162 11.5222 8.90772C11.6398 8.62382 11.7004 8.31953 11.7004 8.01224C11.7004 7.70495 11.6398 7.40066 11.5222 7.11676C11.4046 6.83286 11.2323 6.5749 11.015 6.35761C10.7977 6.14032 10.5397 5.96796 10.2558 5.85036C9.97193 5.73277 9.66765 5.67224 9.36036 5.67224C8.73975 5.67224 8.14456 5.91878 7.70573 6.35761C7.26689 6.79645 7.02036 7.39163 7.02036 8.01224C7.02036 8.63285 7.26689 9.22804 7.70573 9.66687C8.14456 10.1057 8.73975 10.3522 9.36036 10.3522Z" stroke="#2B2B2B" stroke-width="1.5"/>
<path d="M3.07535 6.64729C4.55285 0.152287 14.1753 0.159787 15.6453 6.65479C16.5078 10.4648 14.1378 13.6898 12.0603 15.6848C11.3344 16.3849 10.3652 16.7762 9.3566 16.7762C8.34803 16.7762 7.37879 16.3849 6.65285 15.6848C4.58285 13.6898 2.21285 10.4573 3.07535 6.64729Z" stroke="#2B2B2B" stroke-width="1.5"/>
</svg>
