<svg width="18" height="19" viewBox="0 0 18 19" fill="none" xmlns="http://www.w3.org/2000/svg">
<path d="M7.8675 2.17254L4.125 3.57504C3.2625 3.89754 2.5575 4.91754 2.5575 5.84004V11.4125C2.5575 12.2975 3.14249 13.46 3.85499 13.9925L7.07999 16.4C8.13749 17.195 9.8775 17.195 10.935 16.4L14.16 13.9925C14.8725 13.46 15.4575 12.2975 15.4575 11.4125V5.84004C15.4575 4.91754 14.7525 3.89754 13.89 3.57504L10.1475 2.17254C9.51 1.94004 8.49 1.94004 7.8675 2.17254Z" stroke="#2B2B2B" stroke-width="1.5" stroke-linecap="round" stroke-linejoin="round"/>
<path d="M9 8.69005H8.9025C8.1975 8.66755 7.635 8.08255 7.635 7.37005C7.635 6.64255 8.2275 6.05005 8.955 6.05005C9.6825 6.05005 10.275 6.64255 10.275 7.37005C10.2675 8.09005 9.705 8.66755 9 8.69005ZM7.5075 10.79C6.7875 11.27 6.7875 12.0575 7.5075 12.5375C8.325 13.085 9.6675 13.085 10.485 12.5375C11.205 12.0575 11.205 11.27 10.485 10.79C9.675 10.2425 8.3325 10.2425 7.5075 10.79Z" stroke="#2B2B2B" stroke-width="1.5" stroke-linecap="round" stroke-linejoin="round"/>
</svg>
