<svg width="16" height="14" viewBox="0 0 16 14" fill="none" xmlns="http://www.w3.org/2000/svg">
<path d="M7.84708 11.5094L4.0431 13.5016C3.87505 13.5946 3.69937 13.6344 3.51604 13.6211C3.33272 13.6079 3.17231 13.5547 3.03482 13.4618C2.89732 13.3688 2.79039 13.2524 2.714 13.1127C2.63762 12.973 2.62234 12.8171 2.66817 12.6449L3.67645 8.87958L0.307871 6.34941C0.155101 6.22988 0.0597721 6.09361 0.0218851 5.9406C-0.0160019 5.7876 -0.00469701 5.63831 0.0558 5.49275C0.116908 5.34665 0.20857 5.22711 0.330786 5.13414C0.453002 5.04117 0.621049 4.9814 0.834928 4.95484L5.28054 4.61615L6.9992 1.06994C7.07559 0.910558 7.19414 0.791022 7.35485 0.711332C7.51557 0.631642 7.67964 0.591797 7.84708 0.591797C8.01513 0.591797 8.1792 0.631642 8.3393 0.711332C8.49941 0.791022 8.61796 0.910558 8.69495 1.06994L10.4136 4.61615L14.8592 4.95484C15.0731 4.9814 15.2412 5.04117 15.3634 5.13414C15.4856 5.22711 15.5772 5.34665 15.6384 5.49275C15.6995 5.63884 15.7111 5.7884 15.6732 5.9414C15.6353 6.09441 15.5397 6.23041 15.3863 6.34941L12.0177 8.87958L13.026 12.6449C13.0718 12.8176 13.0565 12.9738 12.9802 13.1135C12.9038 13.2532 12.7968 13.3693 12.6593 13.4618C12.5218 13.5547 12.3614 13.6079 12.1781 13.6211C11.9948 13.6344 11.8191 13.5946 11.6511 13.5016L7.84708 11.5094Z" fill="#FB8011"/>
</svg>
