<svg width="22" height="17" viewBox="0 0 22 17" fill="none" xmlns="http://www.w3.org/2000/svg">
<path d="M14.8755 2.1778C14.1154 2.17767 13.3857 2.47592 12.8434 3.00837C12.301 3.54081 11.9893 4.26489 11.9755 5.0248L11.9475 6.5998C11.9458 6.68436 11.9263 6.76763 11.8902 6.84412C11.8542 6.92062 11.8023 6.98863 11.7381 7.04368C11.6739 7.09873 11.5988 7.13958 11.5177 7.16356C11.4365 7.18754 11.3513 7.19409 11.2675 7.1828L9.70646 6.9708C7.65246 6.6908 5.68446 5.7448 3.79646 4.1718C3.19846 7.4818 4.36646 9.7748 7.17946 11.5438L8.92646 12.6418C9.00947 12.694 9.07843 12.7657 9.12731 12.8507C9.17619 12.9356 9.2035 13.0313 9.20685 13.1293C9.21021 13.2273 9.1895 13.3246 9.14655 13.4127C9.1036 13.5008 9.0397 13.5771 8.96046 13.6348L7.36846 14.7978C8.31546 14.8568 9.21446 14.8148 9.96046 14.6668C14.6785 13.7248 17.8155 10.1748 17.8155 4.3188C17.8155 3.8408 16.8035 2.1778 14.8755 2.1778ZM9.97546 4.9878C9.99291 4.02385 10.2943 3.08647 10.842 2.29302C11.3897 1.49957 12.1593 0.885319 13.0544 0.527167C13.9495 0.169014 14.9304 0.0828794 15.8742 0.279547C16.818 0.476215 17.6829 0.946945 18.3605 1.6328C19.0715 1.6278 19.6765 1.8078 21.0295 0.9878C20.6945 2.6278 20.5295 3.3398 19.8155 4.3188C19.8155 11.9608 15.1185 15.6768 10.3525 16.6278C7.08446 17.2798 2.33246 16.2088 0.970459 14.7868C1.66446 14.7328 4.48446 14.4298 6.11446 13.2368C4.73546 12.3278 -0.753541 9.0978 2.85346 0.4138C4.54646 2.3908 6.26346 3.7368 8.00346 4.4508C9.16146 4.9258 9.44546 4.9158 9.97646 4.9888L9.97546 4.9878Z" fill="#2B2B2B"/>
</svg>
